<mxfile host="app.diagrams.net" agent="Mozilla/5.0 (X11; Linux x86_64; rv:135.0) Gecko/20100101 Firefox/135.0" version="26.0.16">
  <diagram name="PÃ¡gina-1" id="__gXspiRe_H8F2JL_0tH">
    <mxGraphModel dx="1195" dy="619" grid="1" gridSize="10" guides="1" tooltips="1" connect="1" arrows="1" fold="1" page="1" pageScale="1" pageWidth="827" pageHeight="1169" math="0" shadow="0">
      <root>
        <mxCell id="0" />
        <mxCell id="1" parent="0" />
        <mxCell id="FhanUiyfrmrkv_Yjtsyc-1" value="&lt;div&gt;&lt;div&gt;&lt;div&gt;&amp;lt;&amp;lt;contexto escalante&amp;gt;&amp;gt;&lt;/div&gt;&lt;/div&gt;&lt;/div&gt;&lt;div&gt;&lt;div&gt;&amp;lt;&amp;lt;entidade&amp;gt;&amp;gt;&lt;/div&gt;&lt;/div&gt;&lt;div&gt;&lt;font style=&quot;font-size: 14px;&quot;&gt;MilitarEscalado&lt;/font&gt;&lt;/div&gt;" style="swimlane;fontStyle=0;childLayout=stackLayout;horizontal=1;startSize=50;fillColor=#647687;horizontalStack=0;resizeParent=1;resizeParentMax=0;resizeLast=0;collapsible=1;marginBottom=0;whiteSpace=wrap;html=1;fontColor=#ffffff;strokeColor=#314354;" parent="1" vertex="1">
          <mxGeometry x="99" y="80" width="150" height="76" as="geometry" />
        </mxCell>
        <mxCell id="FhanUiyfrmrkv_Yjtsyc-2" value="&lt;div&gt;&amp;lt;&amp;lt;objeto de valor&amp;gt;&amp;gt;&lt;br&gt;&lt;font style=&quot;font-size: 14px;&quot;&gt;EscalaPrevista&lt;/font&gt;&lt;/div&gt;" style="swimlane;fontStyle=0;childLayout=stackLayout;horizontal=1;startSize=39;fillColor=#647687;horizontalStack=0;resizeParent=1;resizeParentMax=0;resizeLast=0;collapsible=1;marginBottom=0;whiteSpace=wrap;html=1;fontColor=#ffffff;strokeColor=#314354;" parent="1" vertex="1">
          <mxGeometry x="369" y="160" width="150" height="65" as="geometry" />
        </mxCell>
        <mxCell id="FhanUiyfrmrkv_Yjtsyc-6" value="&lt;div&gt;&amp;lt;&amp;lt;objeto de valor&amp;gt;&amp;gt;&lt;br&gt;&lt;font style=&quot;font-size: 14px;&quot;&gt;Permuta&lt;/font&gt;&lt;/div&gt;" style="swimlane;fontStyle=0;childLayout=stackLayout;horizontal=1;startSize=40;fillColor=#647687;horizontalStack=0;resizeParent=1;resizeParentMax=0;resizeLast=0;collapsible=1;marginBottom=0;whiteSpace=wrap;html=1;fontColor=#ffffff;strokeColor=#314354;" parent="1" vertex="1">
          <mxGeometry x="136" y="311" width="150" height="66" as="geometry" />
        </mxCell>
        <mxCell id="FhanUiyfrmrkv_Yjtsyc-8" value="" style="endArrow=none;html=1;endSize=12;startArrow=none;startSize=14;startFill=0;edgeStyle=orthogonalEdgeStyle;rounded=0;exitX=1;exitY=0.5;exitDx=0;exitDy=0;" parent="1" source="FhanUiyfrmrkv_Yjtsyc-6" edge="1">
          <mxGeometry relative="1" as="geometry">
            <mxPoint x="286" y="374" as="sourcePoint" />
            <mxPoint x="249" y="140" as="targetPoint" />
            <Array as="points">
              <mxPoint x="320" y="344" />
              <mxPoint x="320" y="140" />
            </Array>
          </mxGeometry>
        </mxCell>
        <mxCell id="FhanUiyfrmrkv_Yjtsyc-9" value="&lt;div&gt;1..n&lt;/div&gt;" style="edgeLabel;resizable=0;html=1;align=left;verticalAlign=top;" parent="FhanUiyfrmrkv_Yjtsyc-8" connectable="0" vertex="1">
          <mxGeometry x="-1" relative="1" as="geometry">
            <mxPoint x="4" y="-24" as="offset" />
          </mxGeometry>
        </mxCell>
        <mxCell id="FhanUiyfrmrkv_Yjtsyc-10" value="2" style="edgeLabel;resizable=0;html=1;align=right;verticalAlign=top;" parent="FhanUiyfrmrkv_Yjtsyc-8" connectable="0" vertex="1">
          <mxGeometry x="1" relative="1" as="geometry">
            <mxPoint x="11" y="-4" as="offset" />
          </mxGeometry>
        </mxCell>
        <mxCell id="FhanUiyfrmrkv_Yjtsyc-12" value="&lt;div&gt;&amp;lt;&amp;lt;objeto de valor&amp;gt;&amp;gt;&lt;br&gt;&lt;font style=&quot;font-size: 14px;&quot;&gt;EscalaExecutada&lt;/font&gt;&lt;/div&gt;" style="swimlane;fontStyle=0;childLayout=stackLayout;horizontal=1;startSize=39;fillColor=#647687;horizontalStack=0;resizeParent=1;resizeParentMax=0;resizeLast=0;collapsible=1;marginBottom=0;whiteSpace=wrap;html=1;fontColor=#ffffff;strokeColor=#314354;" parent="1" vertex="1">
          <mxGeometry x="604" y="160" width="150" height="65" as="geometry" />
        </mxCell>
        <mxCell id="FhanUiyfrmrkv_Yjtsyc-16" value="&lt;div&gt;&lt;div&gt;&lt;div&gt;&lt;div&gt;&amp;lt;&amp;lt;nucleo compartilhado&amp;gt;&amp;gt;&lt;/div&gt;&lt;/div&gt;&lt;/div&gt;&lt;/div&gt;&lt;div&gt;&amp;lt;&amp;lt;entidade&amp;gt;&amp;gt;&lt;br&gt;&lt;font style=&quot;font-size: 14px;&quot;&gt;AnalisePermuta&lt;/font&gt;&lt;/div&gt;" style="swimlane;fontStyle=0;childLayout=stackLayout;horizontal=1;startSize=54;fillColor=#647687;horizontalStack=0;resizeParent=1;resizeParentMax=0;resizeLast=0;collapsible=1;marginBottom=0;whiteSpace=wrap;html=1;fontColor=#ffffff;strokeColor=#314354;" parent="1" vertex="1">
          <mxGeometry x="312" y="441" width="170" height="132" as="geometry" />
        </mxCell>
        <mxCell id="FhanUiyfrmrkv_Yjtsyc-17" value="- id: Long &amp;lt;&amp;lt;id&amp;gt;&amp;gt;" style="text;strokeColor=none;fillColor=none;align=left;verticalAlign=top;spacingLeft=4;spacingRight=4;overflow=hidden;rotatable=0;points=[[0,0.5],[1,0.5]];portConstraint=eastwest;whiteSpace=wrap;html=1;" parent="FhanUiyfrmrkv_Yjtsyc-16" vertex="1">
          <mxGeometry y="54" width="170" height="26" as="geometry" />
        </mxCell>
        <mxCell id="FhanUiyfrmrkv_Yjtsyc-18" value="- situacaoMilitar: Situacao" style="text;strokeColor=none;fillColor=none;align=left;verticalAlign=top;spacingLeft=4;spacingRight=4;overflow=hidden;rotatable=0;points=[[0,0.5],[1,0.5]];portConstraint=eastwest;whiteSpace=wrap;html=1;" parent="FhanUiyfrmrkv_Yjtsyc-16" vertex="1">
          <mxGeometry y="80" width="170" height="26" as="geometry" />
        </mxCell>
        <mxCell id="FhanUiyfrmrkv_Yjtsyc-65" value="- situacaoComando: Situacao" style="text;strokeColor=none;fillColor=none;align=left;verticalAlign=top;spacingLeft=4;spacingRight=4;overflow=hidden;rotatable=0;points=[[0,0.5],[1,0.5]];portConstraint=eastwest;whiteSpace=wrap;html=1;" parent="FhanUiyfrmrkv_Yjtsyc-16" vertex="1">
          <mxGeometry y="106" width="170" height="26" as="geometry" />
        </mxCell>
        <mxCell id="FhanUiyfrmrkv_Yjtsyc-19" value="&amp;lt;&amp;lt;objeto de valor&amp;gt;&amp;gt;&lt;br&gt;&amp;lt;&amp;lt;enum&amp;gt;&amp;gt;&lt;br&gt;Situacao" style="swimlane;fontStyle=0;childLayout=stackLayout;horizontal=1;startSize=47;fillColor=#647687;horizontalStack=0;resizeParent=1;resizeParentMax=0;resizeLast=0;collapsible=1;marginBottom=0;whiteSpace=wrap;html=1;fontColor=#ffffff;strokeColor=#314354;" parent="1" vertex="1">
          <mxGeometry x="99" y="444.5" width="150" height="125" as="geometry" />
        </mxCell>
        <mxCell id="FhanUiyfrmrkv_Yjtsyc-20" value="&lt;div&gt;- APROVADA: Enum&lt;/div&gt;" style="text;strokeColor=none;fillColor=none;align=left;verticalAlign=top;spacingLeft=4;spacingRight=4;overflow=hidden;rotatable=0;points=[[0,0.5],[1,0.5]];portConstraint=eastwest;whiteSpace=wrap;html=1;" parent="FhanUiyfrmrkv_Yjtsyc-19" vertex="1">
          <mxGeometry y="47" width="150" height="26" as="geometry" />
        </mxCell>
        <mxCell id="FhanUiyfrmrkv_Yjtsyc-21" value="&lt;div&gt;- REPROVADA: Enum&lt;/div&gt;" style="text;strokeColor=none;fillColor=none;align=left;verticalAlign=top;spacingLeft=4;spacingRight=4;overflow=hidden;rotatable=0;points=[[0,0.5],[1,0.5]];portConstraint=eastwest;whiteSpace=wrap;html=1;" parent="FhanUiyfrmrkv_Yjtsyc-19" vertex="1">
          <mxGeometry y="73" width="150" height="26" as="geometry" />
        </mxCell>
        <mxCell id="FhanUiyfrmrkv_Yjtsyc-22" value="&lt;div&gt;- AGUARDANDO: Enum&lt;/div&gt;" style="text;strokeColor=none;fillColor=none;align=left;verticalAlign=top;spacingLeft=4;spacingRight=4;overflow=hidden;rotatable=0;points=[[0,0.5],[1,0.5]];portConstraint=eastwest;whiteSpace=wrap;html=1;" parent="FhanUiyfrmrkv_Yjtsyc-19" vertex="1">
          <mxGeometry y="99" width="150" height="26" as="geometry" />
        </mxCell>
        <mxCell id="FhanUiyfrmrkv_Yjtsyc-23" value="" style="endArrow=none;html=1;endSize=12;startArrow=diamondThin;startSize=14;startFill=0;edgeStyle=orthogonalEdgeStyle;rounded=0;entryX=1;entryY=0.5;entryDx=0;entryDy=0;" parent="1" source="FhanUiyfrmrkv_Yjtsyc-16" target="FhanUiyfrmrkv_Yjtsyc-21" edge="1">
          <mxGeometry relative="1" as="geometry">
            <mxPoint x="418" y="551" as="sourcePoint" />
            <mxPoint x="309" y="592" as="targetPoint" />
          </mxGeometry>
        </mxCell>
        <mxCell id="FhanUiyfrmrkv_Yjtsyc-24" value="1" style="edgeLabel;resizable=0;html=1;align=left;verticalAlign=top;" parent="FhanUiyfrmrkv_Yjtsyc-23" connectable="0" vertex="1">
          <mxGeometry x="-1" relative="1" as="geometry">
            <mxPoint x="-22" y="-4" as="offset" />
          </mxGeometry>
        </mxCell>
        <mxCell id="FhanUiyfrmrkv_Yjtsyc-25" value="&lt;div&gt;1..n&lt;/div&gt;" style="edgeLabel;resizable=0;html=1;align=right;verticalAlign=top;" parent="FhanUiyfrmrkv_Yjtsyc-23" connectable="0" vertex="1">
          <mxGeometry x="1" relative="1" as="geometry">
            <mxPoint x="23" y="-25" as="offset" />
          </mxGeometry>
        </mxCell>
        <mxCell id="FhanUiyfrmrkv_Yjtsyc-26" value="" style="endArrow=none;html=1;endSize=12;startArrow=diamondThin;startSize=14;startFill=1;edgeStyle=orthogonalEdgeStyle;rounded=0;exitX=0.5;exitY=0;exitDx=0;exitDy=0;" parent="1" source="FhanUiyfrmrkv_Yjtsyc-16" target="FhanUiyfrmrkv_Yjtsyc-6" edge="1">
          <mxGeometry relative="1" as="geometry">
            <mxPoint x="322" y="537" as="sourcePoint" />
            <mxPoint x="267" y="577" as="targetPoint" />
          </mxGeometry>
        </mxCell>
        <mxCell id="FhanUiyfrmrkv_Yjtsyc-29" value="&lt;div&gt;&lt;div&gt;&amp;lt;&amp;lt;contexto ajudancia&amp;gt;&amp;gt;&lt;/div&gt;&lt;/div&gt;&amp;lt;&amp;lt;entidade&amp;gt;&amp;gt;&lt;br&gt;&lt;font style=&quot;font-size: 14px;&quot;&gt;Militar&lt;/font&gt;" style="swimlane;fontStyle=0;childLayout=stackLayout;horizontal=1;startSize=49;fillColor=#647687;horizontalStack=0;resizeParent=1;resizeParentMax=0;resizeLast=0;collapsible=1;marginBottom=0;whiteSpace=wrap;html=1;fontColor=#ffffff;strokeColor=#314354;" parent="1" vertex="1">
          <mxGeometry x="99" y="207" width="150" height="75" as="geometry" />
        </mxCell>
        <mxCell id="FhanUiyfrmrkv_Yjtsyc-30" value="" style="endArrow=none;html=1;endSize=12;startArrow=none;startSize=14;startFill=0;edgeStyle=orthogonalEdgeStyle;rounded=0;exitX=0.5;exitY=1;exitDx=0;exitDy=0;entryX=0.5;entryY=0;entryDx=0;entryDy=0;" parent="1" source="FhanUiyfrmrkv_Yjtsyc-1" target="FhanUiyfrmrkv_Yjtsyc-29" edge="1">
          <mxGeometry relative="1" as="geometry">
            <mxPoint x="185.99999999999977" y="144.99999999999977" as="sourcePoint" />
            <mxPoint x="119" y="197" as="targetPoint" />
          </mxGeometry>
        </mxCell>
        <mxCell id="FhanUiyfrmrkv_Yjtsyc-31" value="&lt;div&gt;1..n&lt;/div&gt;" style="edgeLabel;resizable=0;html=1;align=left;verticalAlign=top;" parent="FhanUiyfrmrkv_Yjtsyc-30" connectable="0" vertex="1">
          <mxGeometry x="-1" relative="1" as="geometry">
            <mxPoint x="6" y="-3" as="offset" />
          </mxGeometry>
        </mxCell>
        <mxCell id="FhanUiyfrmrkv_Yjtsyc-32" value="1" style="edgeLabel;resizable=0;html=1;align=right;verticalAlign=top;" parent="FhanUiyfrmrkv_Yjtsyc-30" connectable="0" vertex="1">
          <mxGeometry x="1" relative="1" as="geometry">
            <mxPoint x="13" y="-25" as="offset" />
          </mxGeometry>
        </mxCell>
        <mxCell id="FhanUiyfrmrkv_Yjtsyc-36" value="&lt;div&gt;&lt;div&gt;&lt;div&gt;&lt;div&gt;&amp;lt;&amp;lt;nucleo compartilhado&amp;gt;&amp;gt;&lt;/div&gt;&lt;/div&gt;&lt;/div&gt;&lt;/div&gt;&lt;div&gt;&amp;lt;&amp;lt;entidade&amp;gt;&amp;gt;&lt;br&gt;&lt;font style=&quot;font-size: 14px;&quot;&gt;AnaliseEscala&lt;/font&gt;&lt;/div&gt;" style="swimlane;fontStyle=0;childLayout=stackLayout;horizontal=1;startSize=54;fillColor=#647687;horizontalStack=0;resizeParent=1;resizeParentMax=0;resizeLast=0;collapsible=1;marginBottom=0;whiteSpace=wrap;html=1;fontColor=#ffffff;strokeColor=#314354;" parent="1" vertex="1">
          <mxGeometry x="369" y="282" width="150" height="106" as="geometry" />
        </mxCell>
        <mxCell id="FhanUiyfrmrkv_Yjtsyc-37" value="- id: Long &amp;lt;&amp;lt;id&amp;gt;&amp;gt;" style="text;strokeColor=none;fillColor=none;align=left;verticalAlign=top;spacingLeft=4;spacingRight=4;overflow=hidden;rotatable=0;points=[[0,0.5],[1,0.5]];portConstraint=eastwest;whiteSpace=wrap;html=1;" parent="FhanUiyfrmrkv_Yjtsyc-36" vertex="1">
          <mxGeometry y="54" width="150" height="26" as="geometry" />
        </mxCell>
        <mxCell id="FhanUiyfrmrkv_Yjtsyc-43" value="- mudancas: String" style="text;strokeColor=none;fillColor=none;align=left;verticalAlign=top;spacingLeft=4;spacingRight=4;overflow=hidden;rotatable=0;points=[[0,0.5],[1,0.5]];portConstraint=eastwest;whiteSpace=wrap;html=1;" parent="FhanUiyfrmrkv_Yjtsyc-36" vertex="1">
          <mxGeometry y="80" width="150" height="26" as="geometry" />
        </mxCell>
        <mxCell id="FhanUiyfrmrkv_Yjtsyc-39" value="&amp;lt;&amp;lt;objeto de valor&amp;gt;&amp;gt;&lt;br&gt;&amp;lt;&amp;lt;enum&amp;gt;&amp;gt;&lt;br&gt;Situacao" style="swimlane;fontStyle=0;childLayout=stackLayout;horizontal=1;startSize=47;fillColor=#647687;horizontalStack=0;resizeParent=1;resizeParentMax=0;resizeLast=0;collapsible=1;marginBottom=0;whiteSpace=wrap;html=1;fontColor=#ffffff;strokeColor=#314354;" parent="1" vertex="1">
          <mxGeometry x="540" y="263" width="150" height="125" as="geometry" />
        </mxCell>
        <mxCell id="FhanUiyfrmrkv_Yjtsyc-40" value="&lt;div&gt;- APROVADA: Enum&lt;/div&gt;" style="text;strokeColor=none;fillColor=none;align=left;verticalAlign=top;spacingLeft=4;spacingRight=4;overflow=hidden;rotatable=0;points=[[0,0.5],[1,0.5]];portConstraint=eastwest;whiteSpace=wrap;html=1;" parent="FhanUiyfrmrkv_Yjtsyc-39" vertex="1">
          <mxGeometry y="47" width="150" height="26" as="geometry" />
        </mxCell>
        <mxCell id="FhanUiyfrmrkv_Yjtsyc-41" value="&lt;div&gt;- REPROVADA: Enum&lt;/div&gt;" style="text;strokeColor=none;fillColor=none;align=left;verticalAlign=top;spacingLeft=4;spacingRight=4;overflow=hidden;rotatable=0;points=[[0,0.5],[1,0.5]];portConstraint=eastwest;whiteSpace=wrap;html=1;" parent="FhanUiyfrmrkv_Yjtsyc-39" vertex="1">
          <mxGeometry y="73" width="150" height="26" as="geometry" />
        </mxCell>
        <mxCell id="FhanUiyfrmrkv_Yjtsyc-42" value="&lt;div&gt;- AGUARDANDO: Enum&lt;/div&gt;" style="text;strokeColor=none;fillColor=none;align=left;verticalAlign=top;spacingLeft=4;spacingRight=4;overflow=hidden;rotatable=0;points=[[0,0.5],[1,0.5]];portConstraint=eastwest;whiteSpace=wrap;html=1;" parent="FhanUiyfrmrkv_Yjtsyc-39" vertex="1">
          <mxGeometry y="99" width="150" height="26" as="geometry" />
        </mxCell>
        <mxCell id="FhanUiyfrmrkv_Yjtsyc-44" value="" style="endArrow=none;html=1;endSize=12;startArrow=diamondThin;startSize=14;startFill=0;edgeStyle=orthogonalEdgeStyle;rounded=0;exitX=0.5;exitY=0;exitDx=0;exitDy=0;entryX=0.5;entryY=1;entryDx=0;entryDy=0;" parent="1" source="FhanUiyfrmrkv_Yjtsyc-36" target="FhanUiyfrmrkv_Yjtsyc-2" edge="1">
          <mxGeometry relative="1" as="geometry">
            <mxPoint x="780" y="376" as="sourcePoint" />
            <mxPoint x="604" y="312" as="targetPoint" />
          </mxGeometry>
        </mxCell>
        <mxCell id="FhanUiyfrmrkv_Yjtsyc-51" value="" style="endArrow=none;html=1;endSize=12;startArrow=diamondThin;startSize=14;startFill=0;edgeStyle=orthogonalEdgeStyle;rounded=0;exitX=0.5;exitY=1;exitDx=0;exitDy=0;entryX=0.5;entryY=1;entryDx=0;entryDy=0;" parent="1" source="FhanUiyfrmrkv_Yjtsyc-36" target="FhanUiyfrmrkv_Yjtsyc-39" edge="1">
          <mxGeometry relative="1" as="geometry">
            <mxPoint x="680" y="491" as="sourcePoint" />
            <mxPoint x="640" y="455" as="targetPoint" />
            <Array as="points">
              <mxPoint x="444" y="411" />
              <mxPoint x="615" y="411" />
            </Array>
          </mxGeometry>
        </mxCell>
        <mxCell id="FhanUiyfrmrkv_Yjtsyc-52" value="1" style="edgeLabel;resizable=0;html=1;align=left;verticalAlign=top;" parent="FhanUiyfrmrkv_Yjtsyc-51" connectable="0" vertex="1">
          <mxGeometry x="-1" relative="1" as="geometry">
            <mxPoint x="-14" y="6" as="offset" />
          </mxGeometry>
        </mxCell>
        <mxCell id="FhanUiyfrmrkv_Yjtsyc-53" value="&lt;div&gt;1..n&lt;/div&gt;" style="edgeLabel;resizable=0;html=1;align=right;verticalAlign=top;" parent="FhanUiyfrmrkv_Yjtsyc-51" connectable="0" vertex="1">
          <mxGeometry x="1" relative="1" as="geometry">
            <mxPoint x="21" y="6" as="offset" />
          </mxGeometry>
        </mxCell>
        <mxCell id="FhanUiyfrmrkv_Yjtsyc-55" value="" style="endArrow=none;html=1;endSize=12;startArrow=open;startSize=14;startFill=0;edgeStyle=orthogonalEdgeStyle;rounded=0;entryX=0.75;entryY=1;entryDx=0;entryDy=0;dashed=1;exitX=1;exitY=0.25;exitDx=0;exitDy=0;" parent="1" source="FhanUiyfrmrkv_Yjtsyc-16" target="FhanUiyfrmrkv_Yjtsyc-12" edge="1">
          <mxGeometry relative="1" as="geometry">
            <mxPoint x="765" y="414" as="sourcePoint" />
            <mxPoint x="740" y="495" as="targetPoint" />
          </mxGeometry>
        </mxCell>
        <mxCell id="FhanUiyfrmrkv_Yjtsyc-56" value="&lt;div&gt;&amp;lt;&amp;lt;classe abstrata&amp;gt;&amp;gt;&lt;/div&gt;&lt;div&gt;&lt;font style=&quot;font-size: 14px;&quot;&gt;Escala&lt;/font&gt;&lt;/div&gt;" style="swimlane;fontStyle=0;childLayout=stackLayout;horizontal=1;startSize=39;fillColor=#647687;horizontalStack=0;resizeParent=1;resizeParentMax=0;resizeLast=0;collapsible=1;marginBottom=0;whiteSpace=wrap;html=1;fontColor=#ffffff;strokeColor=#314354;" parent="1" vertex="1">
          <mxGeometry x="339" y="50" width="150" height="91" as="geometry" />
        </mxCell>
        <mxCell id="FhanUiyfrmrkv_Yjtsyc-57" value="- dataInicial: Date" style="text;strokeColor=none;fillColor=none;align=left;verticalAlign=top;spacingLeft=4;spacingRight=4;overflow=hidden;rotatable=0;points=[[0,0.5],[1,0.5]];portConstraint=eastwest;whiteSpace=wrap;html=1;" parent="FhanUiyfrmrkv_Yjtsyc-56" vertex="1">
          <mxGeometry y="39" width="150" height="26" as="geometry" />
        </mxCell>
        <mxCell id="FhanUiyfrmrkv_Yjtsyc-58" value="- dataFinal: Date" style="text;strokeColor=none;fillColor=none;align=left;verticalAlign=top;spacingLeft=4;spacingRight=4;overflow=hidden;rotatable=0;points=[[0,0.5],[1,0.5]];portConstraint=eastwest;whiteSpace=wrap;html=1;" parent="FhanUiyfrmrkv_Yjtsyc-56" vertex="1">
          <mxGeometry y="65" width="150" height="26" as="geometry" />
        </mxCell>
        <mxCell id="FhanUiyfrmrkv_Yjtsyc-59" value="" style="endArrow=none;html=1;endSize=12;startArrow=none;startSize=14;startFill=0;edgeStyle=orthogonalEdgeStyle;rounded=0;exitX=0;exitY=0.25;exitDx=0;exitDy=0;entryX=1;entryY=0.25;entryDx=0;entryDy=0;" parent="1" source="FhanUiyfrmrkv_Yjtsyc-56" target="FhanUiyfrmrkv_Yjtsyc-1" edge="1">
          <mxGeometry relative="1" as="geometry">
            <mxPoint x="60" y="30" as="sourcePoint" />
            <mxPoint x="60" y="90" as="targetPoint" />
          </mxGeometry>
        </mxCell>
        <mxCell id="FhanUiyfrmrkv_Yjtsyc-60" value="1" style="edgeLabel;resizable=0;html=1;align=left;verticalAlign=top;" parent="FhanUiyfrmrkv_Yjtsyc-59" connectable="0" vertex="1">
          <mxGeometry x="-1" relative="1" as="geometry">
            <mxPoint x="-11" y="-3" as="offset" />
          </mxGeometry>
        </mxCell>
        <mxCell id="FhanUiyfrmrkv_Yjtsyc-61" value="&lt;div&gt;1..n&lt;/div&gt;" style="edgeLabel;resizable=0;html=1;align=right;verticalAlign=top;" parent="FhanUiyfrmrkv_Yjtsyc-59" connectable="0" vertex="1">
          <mxGeometry x="1" relative="1" as="geometry">
            <mxPoint x="21" y="-25" as="offset" />
          </mxGeometry>
        </mxCell>
        <mxCell id="FhanUiyfrmrkv_Yjtsyc-62" value="" style="endArrow=block;html=1;endSize=12;startArrow=none;startSize=14;startFill=0;edgeStyle=orthogonalEdgeStyle;rounded=0;endFill=0;entryX=1;entryY=0.25;entryDx=0;entryDy=0;exitX=1;exitY=0.25;exitDx=0;exitDy=0;" parent="1" source="FhanUiyfrmrkv_Yjtsyc-2" target="FhanUiyfrmrkv_Yjtsyc-56" edge="1">
          <mxGeometry relative="1" as="geometry">
            <mxPoint x="675" y="498" as="sourcePoint" />
            <mxPoint x="235" y="510" as="targetPoint" />
            <Array as="points">
              <mxPoint x="541" y="176" />
              <mxPoint x="541" y="73" />
            </Array>
          </mxGeometry>
        </mxCell>
        <mxCell id="FhanUiyfrmrkv_Yjtsyc-63" value="" style="endArrow=block;html=1;endSize=12;startArrow=none;startSize=14;startFill=0;edgeStyle=orthogonalEdgeStyle;rounded=0;endFill=0;entryX=1;entryY=0.25;entryDx=0;entryDy=0;exitX=0.5;exitY=0;exitDx=0;exitDy=0;" parent="1" source="FhanUiyfrmrkv_Yjtsyc-12" target="FhanUiyfrmrkv_Yjtsyc-56" edge="1">
          <mxGeometry relative="1" as="geometry">
            <mxPoint x="551" y="183" as="sourcePoint" />
            <mxPoint x="499" y="93" as="targetPoint" />
            <Array as="points">
              <mxPoint x="679" y="173" />
              <mxPoint x="680" y="173" />
              <mxPoint x="680" y="73" />
            </Array>
          </mxGeometry>
        </mxCell>
        <mxCell id="FhanUiyfrmrkv_Yjtsyc-64" value="" style="endArrow=none;html=1;endSize=12;startArrow=open;startSize=14;startFill=0;edgeStyle=orthogonalEdgeStyle;rounded=0;entryX=0;entryY=0.75;entryDx=0;entryDy=0;dashed=1;exitX=1;exitY=0.75;exitDx=0;exitDy=0;" parent="1" source="FhanUiyfrmrkv_Yjtsyc-2" target="FhanUiyfrmrkv_Yjtsyc-12" edge="1">
          <mxGeometry relative="1" as="geometry">
            <mxPoint x="484" y="481" as="sourcePoint" />
            <mxPoint x="600" y="481" as="targetPoint" />
          </mxGeometry>
        </mxCell>
        <mxCell id="FhanUiyfrmrkv_Yjtsyc-68" value="&lt;div&gt;&amp;lt;&amp;lt;objeto de valor&amp;gt;&amp;gt;&lt;br&gt;&lt;font style=&quot;font-size: 14px;&quot;&gt;Notificacao&lt;/font&gt;&lt;/div&gt;" style="swimlane;fontStyle=0;childLayout=stackLayout;horizontal=1;startSize=40;fillColor=#647687;horizontalStack=0;resizeParent=1;resizeParentMax=0;resizeLast=0;collapsible=1;marginBottom=0;whiteSpace=wrap;html=1;fontColor=#ffffff;strokeColor=#314354;" parent="1" vertex="1">
          <mxGeometry x="604" y="501" width="150" height="66" as="geometry" />
        </mxCell>
        <mxCell id="FhanUiyfrmrkv_Yjtsyc-69" value="" style="endArrow=none;html=1;endSize=12;startArrow=open;startSize=14;startFill=0;edgeStyle=orthogonalEdgeStyle;rounded=0;entryX=0;entryY=0.5;entryDx=0;entryDy=0;dashed=1;exitX=1;exitY=0.5;exitDx=0;exitDy=0;" parent="1" source="FhanUiyfrmrkv_Yjtsyc-18" target="FhanUiyfrmrkv_Yjtsyc-68" edge="1">
          <mxGeometry relative="1" as="geometry">
            <mxPoint x="492" y="484" as="sourcePoint" />
            <mxPoint x="727" y="248" as="targetPoint" />
          </mxGeometry>
        </mxCell>
        <mxCell id="FhanUiyfrmrkv_Yjtsyc-70" value="Contexto Comando" style="swimlane;startSize=20;horizontal=0;childLayout=treeLayout;horizontalTree=1;sortEdges=1;resizable=1;containerType=tree;fontSize=16;fillColor=#b1ddf0;strokeColor=#10739e;" parent="1" vertex="1">
          <mxGeometry x="14" y="30" width="766" height="560" as="geometry">
            <mxRectangle x="14" y="50" width="40" height="130" as="alternateBounds" />
          </mxGeometry>
        </mxCell>
        <mxCell id="n66VIpHryuUtHyC-1QqW-4" value="" style="endArrow=none;dashed=1;html=1;dashPattern=1 4;strokeWidth=2;rounded=0;" parent="1" edge="1">
          <mxGeometry width="50" height="50" relative="1" as="geometry">
            <mxPoint x="360" y="400" as="sourcePoint" />
            <mxPoint x="360" y="240" as="targetPoint" />
          </mxGeometry>
        </mxCell>
        <mxCell id="n66VIpHryuUtHyC-1QqW-5" value="" style="endArrow=none;dashed=1;html=1;dashPattern=1 4;strokeWidth=2;rounded=0;" parent="1" edge="1">
          <mxGeometry width="50" height="50" relative="1" as="geometry">
            <mxPoint x="360" y="400" as="sourcePoint" />
            <mxPoint x="700" y="400" as="targetPoint" />
          </mxGeometry>
        </mxCell>
        <mxCell id="n66VIpHryuUtHyC-1QqW-6" value="" style="endArrow=none;dashed=1;html=1;dashPattern=1 4;strokeWidth=2;rounded=0;" parent="1" edge="1">
          <mxGeometry width="50" height="50" relative="1" as="geometry">
            <mxPoint x="700" y="400" as="sourcePoint" />
            <mxPoint x="700" y="240" as="targetPoint" />
          </mxGeometry>
        </mxCell>
        <mxCell id="n66VIpHryuUtHyC-1QqW-7" value="" style="endArrow=none;dashed=1;html=1;dashPattern=1 4;strokeWidth=2;rounded=0;" parent="1" edge="1">
          <mxGeometry width="50" height="50" relative="1" as="geometry">
            <mxPoint x="360" y="250" as="sourcePoint" />
            <mxPoint x="710" y="250" as="targetPoint" />
          </mxGeometry>
        </mxCell>
        <mxCell id="n66VIpHryuUtHyC-1QqW-10" value="" style="endArrow=none;dashed=1;html=1;dashPattern=1 4;strokeWidth=2;rounded=0;" parent="1" edge="1">
          <mxGeometry width="50" height="50" relative="1" as="geometry">
            <mxPoint x="90" y="580" as="sourcePoint" />
            <mxPoint x="90" y="291" as="targetPoint" />
          </mxGeometry>
        </mxCell>
        <mxCell id="n66VIpHryuUtHyC-1QqW-11" value="" style="endArrow=none;dashed=1;html=1;dashPattern=1 4;strokeWidth=2;rounded=0;" parent="1" edge="1">
          <mxGeometry width="50" height="50" relative="1" as="geometry">
            <mxPoint x="330" y="300" as="sourcePoint" />
            <mxPoint x="81" y="300" as="targetPoint" />
          </mxGeometry>
        </mxCell>
        <mxCell id="n66VIpHryuUtHyC-1QqW-12" value="" style="endArrow=none;dashed=1;html=1;dashPattern=1 4;strokeWidth=2;rounded=0;" parent="1" edge="1">
          <mxGeometry width="50" height="50" relative="1" as="geometry">
            <mxPoint x="330" y="420" as="sourcePoint" />
            <mxPoint x="330" y="291" as="targetPoint" />
          </mxGeometry>
        </mxCell>
        <mxCell id="n66VIpHryuUtHyC-1QqW-13" value="" style="endArrow=none;dashed=1;html=1;dashPattern=1 4;strokeWidth=2;rounded=0;" parent="1" edge="1">
          <mxGeometry width="50" height="50" relative="1" as="geometry">
            <mxPoint x="510" y="420" as="sourcePoint" />
            <mxPoint x="330" y="420" as="targetPoint" />
          </mxGeometry>
        </mxCell>
        <mxCell id="n66VIpHryuUtHyC-1QqW-14" value="" style="endArrow=none;dashed=1;html=1;dashPattern=1 4;strokeWidth=2;rounded=0;" parent="1" edge="1">
          <mxGeometry width="50" height="50" relative="1" as="geometry">
            <mxPoint x="510" y="580" as="sourcePoint" />
            <mxPoint x="510" y="420" as="targetPoint" />
          </mxGeometry>
        </mxCell>
        <mxCell id="n66VIpHryuUtHyC-1QqW-16" value="" style="endArrow=none;dashed=1;html=1;dashPattern=1 4;strokeWidth=2;rounded=0;" parent="1" edge="1">
          <mxGeometry width="50" height="50" relative="1" as="geometry">
            <mxPoint x="510" y="580" as="sourcePoint" />
            <mxPoint x="80" y="580" as="targetPoint" />
          </mxGeometry>
        </mxCell>
        <mxCell id="n66VIpHryuUtHyC-1QqW-18" value="" style="endArrow=none;dashed=1;html=1;dashPattern=1 4;strokeWidth=2;rounded=0;entryX=0;entryY=0;entryDx=0;entryDy=0;exitX=0;exitY=0;exitDx=0;exitDy=0;" parent="1" edge="1">
          <mxGeometry width="50" height="50" relative="1" as="geometry">
            <mxPoint x="90" y="180" as="sourcePoint" />
            <mxPoint x="90" y="30" as="targetPoint" />
          </mxGeometry>
        </mxCell>
        <mxCell id="n66VIpHryuUtHyC-1QqW-19" value="" style="endArrow=none;dashed=1;html=1;dashPattern=1 4;strokeWidth=2;rounded=0;entryX=0;entryY=0;entryDx=0;entryDy=0;exitX=1;exitY=0;exitDx=0;exitDy=0;" parent="1" edge="1">
          <mxGeometry width="50" height="50" relative="1" as="geometry">
            <mxPoint x="770" y="40" as="sourcePoint" />
            <mxPoint x="90" y="40" as="targetPoint" />
          </mxGeometry>
        </mxCell>
        <mxCell id="n66VIpHryuUtHyC-1QqW-20" value="" style="endArrow=none;dashed=1;html=1;dashPattern=1 4;strokeWidth=2;rounded=0;exitX=1;exitY=1;exitDx=0;exitDy=0;entryX=1;entryY=1;entryDx=0;entryDy=0;" parent="1" edge="1">
          <mxGeometry width="50" height="50" relative="1" as="geometry">
            <mxPoint x="769.9999999999998" y="240" as="sourcePoint" />
            <mxPoint x="280" y="240" as="targetPoint" />
          </mxGeometry>
        </mxCell>
        <mxCell id="n66VIpHryuUtHyC-1QqW-21" value="" style="endArrow=none;dashed=1;html=1;dashPattern=1 4;strokeWidth=2;rounded=0;entryX=1;entryY=0;entryDx=0;entryDy=0;exitX=1;exitY=1;exitDx=0;exitDy=0;" parent="1" edge="1">
          <mxGeometry width="50" height="50" relative="1" as="geometry">
            <mxPoint x="769.9999999999998" y="240" as="sourcePoint" />
            <mxPoint x="770" y="40" as="targetPoint" />
          </mxGeometry>
        </mxCell>
        <mxCell id="n66VIpHryuUtHyC-1QqW-23" value="" style="endArrow=none;dashed=1;html=1;dashPattern=1 4;strokeWidth=2;rounded=0;entryX=0;entryY=0;entryDx=0;entryDy=0;exitX=1;exitY=0;exitDx=0;exitDy=0;" parent="1" edge="1">
          <mxGeometry width="50" height="50" relative="1" as="geometry">
            <mxPoint x="280" y="180" as="sourcePoint" />
            <mxPoint x="90" y="180" as="targetPoint" />
          </mxGeometry>
        </mxCell>
        <mxCell id="n66VIpHryuUtHyC-1QqW-24" value="" style="endArrow=none;dashed=1;html=1;dashPattern=1 4;strokeWidth=2;rounded=0;entryX=1;entryY=0;entryDx=0;entryDy=0;exitX=1;exitY=1;exitDx=0;exitDy=0;" parent="1" edge="1">
          <mxGeometry width="50" height="50" relative="1" as="geometry">
            <mxPoint x="280" y="240" as="sourcePoint" />
            <mxPoint x="280" y="180" as="targetPoint" />
          </mxGeometry>
        </mxCell>
      </root>
    </mxGraphModel>
  </diagram>
</mxfile>
